<svg width="157" height="80" viewBox="0 0 157 80" fill="none" xmlns="http://www.w3.org/2000/svg">
<g filter="url(#filter0_d_1159_107)">
<path d="M148.16 31.1053C146.65 32.1912 145.039 32.9809 143.428 33.8693C143.428 32.1912 143.328 30.4143 142.824 28.8349C142.925 28.5388 142.925 28.1439 142.925 27.8478C143.328 24.8864 143.63 20.8391 140.912 18.7662C140.61 18.47 139.704 18.7662 138.999 19.0623C138.798 18.8649 138.697 18.7662 138.496 18.6674C138.395 18.47 138.295 18.1739 138.295 17.9765C138.295 17.8777 138.093 17.779 137.892 17.779C138.194 17.3842 138.194 16.9893 137.489 16.6932C137.087 16.4958 136.684 16.397 136.382 16.2983C136.281 16.1996 136.281 16.1996 136.181 16.1996C135.275 15.9035 134.268 15.7061 133.261 15.5086C133.362 15.2125 133.664 14.7189 133.865 14.5215C133.966 14.3241 134.167 14.2254 134.268 14.1266C134.369 14.0279 134.369 14.0279 134.469 13.9292C134.469 13.9292 134.57 13.9292 134.57 13.8305C134.57 13.8305 134.57 13.8305 134.671 13.7318C135.073 13.4356 135.476 12.8434 134.872 12.5472C134.268 12.2511 133.362 12.4485 132.859 12.7447C131.953 13.4356 131.248 14.1266 130.745 15.1138C128.732 14.9163 126.718 14.9163 124.604 15.0151C124.705 14.9163 124.705 14.8176 124.705 14.7189C124.906 14.1266 123.799 14.2254 123.497 14.2254C121.886 14.4228 120.376 14.6202 118.766 14.8176C120.175 11.0665 121.886 6.3283 119.772 2.67591C118.564 0.602929 115.847 0.109363 113.632 0.0106495C111.216 -0.0880637 108.699 0.504216 106.585 1.59006C101.754 4.1566 99.4383 9.19098 98.331 14.5215C97.8277 13.8305 96.0157 14.1266 95.7137 15.0151C95.6131 15.3112 95.5124 15.6073 95.4117 16.0022C95.2104 16.1996 95.1097 16.397 95.1097 16.5945C95.1097 16.6932 95.1097 16.6932 95.1097 16.7919C95.0091 16.7919 95.0091 16.7919 94.9084 16.7919C94.9084 16.6932 94.9084 16.5945 95.0091 16.4958C95.1097 16.397 95.2104 16.2983 95.3111 16.1009C95.915 13.8305 96.519 11.5601 97.2237 9.3884C97.5257 8.5987 94.7071 8.99355 94.4051 9.78326C94.0024 10.9678 93.5998 12.1524 93.2978 13.3369C93.0965 13.4356 92.8951 13.5344 92.8951 13.6331V13.7318C92.7945 13.6331 92.5931 13.5344 92.3918 13.5344C92.3918 13.2382 92.3918 12.9421 92.3918 12.5472C92.3918 12.1524 89.5732 12.5472 89.5732 13.3369C89.5732 13.8305 89.5732 14.3241 89.5732 14.9163C89.3719 15.0151 89.2712 15.1138 89.0699 15.2125C88.9692 15.3112 88.9692 15.3112 88.8686 15.4099C88.7679 15.5086 88.7679 15.6073 88.7679 15.6073V15.7061C88.7679 15.7061 88.7679 15.706 88.6672 15.8048C88.5666 15.9035 88.4659 16.1009 88.6672 16.2983C88.8686 16.4958 89.1706 16.4958 89.3719 16.4958H89.4725C89.4725 16.6932 89.4725 16.7919 89.4725 16.9893C89.2712 16.9893 88.9692 16.9893 88.7679 16.9893L88.3652 16.8906C88.3652 16.4958 87.6606 16.397 86.9559 16.5945V16.4958C86.8553 15.9035 86.7546 15.3112 86.7546 14.7189C86.9559 14.6202 87.2579 14.5215 87.4593 14.4228C87.6606 14.3241 87.7613 14.2254 87.7613 14.0279C87.7613 13.9292 87.7613 13.9292 87.7613 13.8305C87.7613 13.6331 87.3586 13.6331 87.2579 13.6331C87.0566 13.6331 86.8553 13.6331 86.654 13.6331C86.5533 12.3498 86.5533 11.0665 86.5533 9.78326C86.5533 8.99355 83.7347 9.48712 83.7347 10.573C83.7347 12.3498 83.7347 14.1266 83.936 15.8048C83.8354 15.8048 83.7347 15.8048 83.634 15.8048C83.634 15.3112 83.634 14.8176 83.634 14.3241C83.634 13.3369 82.3254 13.1395 81.5201 13.5344C81.8221 13.2382 82.0234 12.9421 81.9227 12.5472C81.5201 11.1652 81.1174 9.78326 80.9161 8.30256C80.7148 6.92057 77.8962 7.61157 78.0975 9.09227C78.2988 10.573 78.7015 11.9549 79.1041 13.3369C79.3055 14.1266 80.4128 14.2254 81.2181 13.8305C81.0168 14.0279 80.8154 14.3241 80.8154 14.6202C80.8154 14.8176 80.8154 15.0151 80.8154 15.2125C80.5135 14.9163 80.3121 14.9163 79.9095 14.9163C78.8022 14.9163 78.1982 15.8048 78.5002 16.397C78.2988 16.397 78.1982 16.2983 77.9968 16.2983C77.5942 15.1138 77.2922 13.8305 77.2922 12.5472C77.2922 11.6588 75.9836 11.5601 75.1783 11.8562C75.1783 11.7575 75.1783 11.7575 75.1783 11.6588C74.7756 10.8691 74.5743 9.98068 74.3729 9.19098C74.071 7.90771 71.1517 8.5987 71.5543 9.98068C71.7557 10.573 71.8563 11.264 72.0577 11.8562C72.0577 11.8562 72.0577 11.8562 71.957 11.8562C71.655 11.9549 71.353 12.0537 71.051 12.2511C70.2457 12.3498 69.2391 12.8434 69.2391 13.4356C69.3397 13.9292 69.3397 14.4228 69.4404 14.8176C69.0377 14.9163 68.4338 14.9163 67.9304 15.0151C67.6285 14.2254 67.4271 13.4356 67.3265 12.6459C67.2258 11.7575 65.7158 11.7575 65.0112 12.3498C64.2059 10.2768 63.1992 8.40127 61.8906 6.62443C59.1727 3.26819 54.6428 2.08363 50.5156 2.97205C48.6029 3.3669 46.791 4.1566 45.4824 5.53859C44.2744 6.92057 44.0731 8.5987 44.2744 10.2768C44.4757 11.7575 44.8784 14.2254 45.885 16.1996C45.4824 16.1996 45.1804 16.1996 44.979 16.2983C44.677 16.397 44.3751 16.4958 44.1737 16.6932C42.2611 16.6932 40.2478 16.6932 38.3352 16.5945C34.1073 16.397 29.9801 15.7061 25.7522 15.9035C24.8462 15.9035 24.2422 16.5945 24.2422 17.1867C23.2356 17.6803 22.531 18.47 22.1283 19.4572C20.417 18.3713 18.6051 17.1867 16.7931 16.2983C16.0885 15.9035 13.4712 16.9893 14.4778 17.4829C16.2898 18.3713 18.1017 19.5559 19.813 20.6417C20.3163 20.9378 21.1217 20.7404 21.625 20.543C21.625 20.543 21.7256 20.543 21.8263 20.4443C21.5243 21.8263 21.625 23.5044 22.0276 24.8864C22.0276 24.9851 22.1283 25.0838 22.229 25.1825C22.229 25.4787 22.229 25.8735 22.229 26.1697C22.229 26.2684 22.229 26.2684 22.229 26.3671C21.8263 26.5645 21.5243 26.8606 21.4236 27.1568C21.2223 28.5388 21.1217 29.9208 21.1217 31.3027C20.8197 31.5002 20.6183 31.7963 20.6183 32.0924C20.417 35.35 20.6183 38.7062 21.1217 41.9638C21.323 44.629 21.8263 47.1956 22.3296 49.8608C22.4303 50.2557 22.4303 50.6505 22.531 51.1441C22.229 52.2299 22.1283 53.5132 22.3296 54.5991C21.4236 54.7965 20.6183 55.4875 21.1217 56.1785C21.927 57.363 22.7323 58.1527 23.7389 58.745C23.1349 58.6463 22.3296 58.8437 21.8263 59.3373C21.021 60.127 20.115 60.818 19.3097 61.6077C18.907 62.0025 19.0077 62.4961 19.6117 62.6935C20.3163 62.891 21.1217 62.5948 21.625 62.2C22.4303 61.4103 23.3363 60.7193 24.1416 59.9296C24.3429 59.7321 24.4436 59.436 24.3429 59.2386C27.5642 60.9167 31.5907 60.5218 35.5166 60.127C34.6106 61.7064 34.0067 63.3845 33.302 65.0627C33 65.7536 35.8186 65.4575 36.1206 64.6678C36.7246 62.9897 37.3286 61.4103 38.2345 59.8309C41.9591 59.9296 45.7844 59.9296 49.5089 59.9296C49.6096 60.127 49.9116 60.2257 50.2136 60.2257C53.5355 60.5219 56.7567 60.127 59.978 59.5347C64.8099 59.3373 69.6417 59.0411 74.4736 58.745C82.0234 58.5476 89.6739 58.4489 97.2237 58.4489C97.3243 58.5476 97.425 58.6463 97.5257 58.745C97.8277 59.0411 98.1297 59.0411 98.5323 59.0411C98.633 59.0411 98.633 59.0411 98.7336 59.0411C99.4383 59.0411 100.143 59.1399 100.848 59.1399C101.049 59.1399 101.15 59.2386 101.452 59.1399C102.257 59.2386 103.062 59.2386 103.767 59.3373C103.968 59.5347 104.27 59.6334 104.572 59.7321C108.397 60.0283 112.223 60.2257 116.048 60.4231C116.149 60.6206 116.551 60.7193 116.853 60.7193C124 60.818 132.255 63.4832 138.597 59.0411C139.1 58.6463 138.899 58.1527 138.295 58.054C138.194 58.054 138.093 58.054 137.993 58.054C139.201 55.29 140.207 52.5261 140.912 49.5647C141.315 49.3673 141.516 49.0711 141.516 48.6763C141.516 47.4917 141.717 46.3071 141.919 45.1226C142.12 44.2342 142.221 43.3457 142.321 42.4573C142.724 40.2856 143.126 38.1139 143.328 36.041C145.643 34.9551 147.858 33.7706 149.972 32.2899C151.582 31.1053 149.166 30.4143 148.16 31.1053ZM92.3918 16.2983L92.2911 16.397C92.3918 16.1009 92.3918 15.8048 92.4925 15.5086H92.5931C92.5931 15.7061 92.4925 16.0022 92.3918 16.2983Z" fill="black"/>
<path d="M67.729 12.5468C67.8297 12.7442 68.333 12.7442 68.5343 12.7442C68.937 12.7442 69.3396 12.6455 69.6416 12.5468C70.0443 12.3494 70.7489 11.9545 70.4469 11.461C70.0443 10.8687 69.8429 10.2764 69.4403 9.68411C69.3396 9.48669 68.8363 9.48669 68.635 9.48669C68.2323 9.48669 67.8296 9.5854 67.5277 9.68411C67.125 9.88154 66.4204 10.2764 66.7223 10.77C67.0243 11.3622 67.3263 12.0532 67.729 12.5468Z" fill="black"/>
<path d="M24.8461 10.8691C25.0474 11.4613 25.9534 11.4613 26.4567 11.3626C26.96 11.2639 27.866 10.7703 27.6647 10.0793C27.4634 9.48707 27.262 8.79608 26.7587 8.30251C26.2554 7.80894 25.4501 7.90766 24.8461 8.10508C24.4434 8.30251 23.6381 8.89479 24.1414 9.38835C24.5441 9.98063 24.6448 10.2768 24.8461 10.8691Z" fill="black"/>
<path d="M34.9124 13.8306C35.7177 13.8306 38.033 12.5474 36.1204 12.5474C35.2144 12.5474 32.9998 13.8306 34.9124 13.8306Z" fill="black"/>
<path d="M127.423 12.2512C127.725 12.3499 128.128 12.2512 128.53 12.1525C128.832 12.0538 129.235 11.9551 129.436 11.659C129.839 11.2641 130.141 10.968 130.443 10.4744C130.544 10.277 130.644 10.0795 130.443 9.88212C130.242 9.68469 129.94 9.68469 129.638 9.58598C129.235 9.58598 128.832 9.68469 128.53 9.78341C128.228 9.88212 127.926 10.0795 127.725 10.3757C127.624 10.5731 127.524 10.7705 127.322 10.8693C127.222 10.968 127.222 10.968 127.121 11.0667C126.92 11.2641 126.819 11.4615 126.819 11.659C126.92 12.0538 127.121 12.1525 127.423 12.2512Z" fill="black"/>
<path d="M140.811 17.5816C141.415 17.4828 142.22 17.3841 142.724 16.8906C144.032 15.8047 145.341 14.7189 146.347 13.3369C146.649 12.942 145.341 13.1395 145.24 13.1395C144.737 13.2382 143.932 13.4356 143.529 13.8305C142.623 15.1137 141.314 16.1009 140.106 17.1867C139.603 17.5816 140.509 17.5816 140.811 17.5816Z" fill="black"/>
<path d="M151.682 44.3332C150.072 44.3332 148.461 44.3332 146.75 44.3332C146.146 44.3332 145.24 44.8268 145.139 45.4191C145.039 46.1101 145.945 46.3075 146.448 46.3075C148.059 46.3075 149.669 46.3075 151.38 46.3075C151.984 46.3075 152.89 45.8139 152.991 45.2216C153.092 44.5307 152.286 44.3332 151.682 44.3332Z" fill="black"/>
<path d="M61.3874 60.1268C60.8841 60.2255 59.9781 60.423 59.7768 60.9165C59.2734 62.1998 58.7701 63.4831 58.3675 64.7663C58.1661 65.4573 60.9847 65.0625 61.1861 64.2728C61.5887 62.9895 61.9914 61.7062 62.5954 60.423C62.7967 59.9294 61.5887 60.1268 61.3874 60.1268Z" fill="black"/>
<path d="M66.0178 62.6935C65.7158 62.6935 65.3132 62.7922 65.0112 62.8909C64.7092 62.9896 64.3065 63.0883 64.0045 63.2858C63.9039 63.3845 63.7025 63.4832 63.7025 63.6806C63.7025 63.7793 63.7025 63.8781 63.7025 63.9768C63.7025 64.0755 63.6019 64.1742 63.6019 64.2729C63.5012 64.3716 63.5012 64.4703 63.6019 64.569C63.8032 64.6678 64.1052 64.6678 64.3065 64.6678C64.7092 64.6678 65.0112 64.569 65.4138 64.3716C65.6151 64.2729 66.0178 64.1742 66.2191 63.9768C66.3198 63.7793 66.4205 63.6806 66.5211 63.4832C66.5211 63.2858 66.5211 63.1871 66.5211 62.9896C66.5211 62.6935 66.1185 62.6935 66.0178 62.6935Z" fill="black"/>
<path d="M121.483 66.3456C121.081 65.6546 118.464 66.6417 118.665 67.1353C119.47 68.7147 120.577 70.1954 121.584 71.7748C121.987 72.4658 124.604 71.38 124.403 70.9851C123.396 69.4057 122.289 67.925 121.483 66.3456Z" fill="black"/>
<path d="M125.51 63.9767C125.208 63.3844 124.403 63.3844 123.9 63.5818C123.497 63.6805 122.39 64.1741 122.692 64.7664C123.094 65.5561 123.497 66.3458 123.9 67.0368C124.202 67.629 125.007 67.629 125.51 67.4316C125.913 67.3329 127.02 66.8393 126.718 66.2471C126.316 65.5561 125.913 64.7664 125.51 63.9767Z" fill="black"/>
<path d="M9.74646 42.6544C8.2365 43.0492 6.72654 43.2467 5.21658 43.6415C4.71326 43.7402 3.90794 44.2338 4.00861 44.9248C4.20994 45.6158 5.11591 45.6158 5.7199 45.5171C7.22986 45.1222 8.73982 44.9248 10.2498 44.5299C10.7531 44.4312 11.5584 43.839 11.4577 43.2467C11.1558 42.5557 10.2498 42.5557 9.74646 42.6544Z" fill="black"/>
<path d="M48.0996 39.6922C47.9989 37.0269 47.5963 34.3617 47.5963 31.6964C47.5963 29.5247 47.9989 27.2543 47.1936 25.1814C47.1936 24.9839 47.2943 24.6878 47.2943 24.4904C47.4956 23.4045 43.9724 23.9968 43.469 24.9839C43.167 25.2801 42.9657 25.5762 43.0664 25.9711C43.0664 26.0698 43.167 26.1685 43.167 26.2672C42.4624 29.426 41.5564 32.5848 40.5498 35.645C40.1471 36.8295 39.6438 38.0141 39.2411 39.1986C38.6372 38.1128 38.0332 37.0269 37.5299 35.8424C36.1206 32.3874 34.9126 28.9325 33.2013 25.6749C33.4026 24.1942 29.9801 24.2929 29.2754 25.6749C28.4701 27.353 28.5708 29.0312 28.8728 30.9067C29.1747 32.9797 29.2754 34.954 29.2754 37.0269C29.2754 40.9755 29.6781 44.924 29.6781 48.8725C29.2754 49.2674 29.1747 49.7609 29.5774 50.2545C29.7787 50.4519 29.9801 50.6494 30.1814 50.8468C31.0874 51.5378 33.7046 50.9455 33.7046 49.5635C33.7046 45.4176 33.4026 41.3703 33.302 37.2244C33.302 36.8295 33.302 36.4347 33.302 36.0398C33.4026 36.1385 33.4026 36.3359 33.5033 36.4347C34.1073 38.0141 34.8119 39.5935 35.7179 41.0742C36.6239 42.5549 37.0265 44.1343 37.5299 45.7137C37.3285 45.9111 37.2279 46.2073 37.3285 46.4047C37.3285 46.6021 37.4292 46.7008 37.6305 46.7995C38.2345 47.3918 39.5431 47.0957 40.1471 46.7995C40.4491 46.7008 40.7511 46.5034 40.9524 46.4047C41.2544 46.2073 41.8584 45.7137 41.6571 45.2201C41.6571 45.1214 41.5564 45.0227 41.5564 44.924C42.0597 43.6407 42.2611 42.3575 42.5631 40.9755C42.8651 39.5935 43.3684 38.2115 43.8717 36.8295C43.9724 37.4218 43.9724 38.1128 44.073 38.7051C44.2744 41.2716 44.073 43.7394 44.073 46.306C44.073 47.1944 44.1737 47.8854 44.2744 48.7738C44.375 49.07 44.677 50.5507 44.5763 50.6494C43.9724 51.2416 44.1737 51.9326 44.979 52.0313C45.885 52.2288 47.0929 51.9326 47.7976 51.3404C49.0056 50.2545 48.4016 48.4777 48.2003 47.0957C47.5963 44.7266 48.0996 42.0613 48.0996 39.6922Z" fill="white"/>
<path d="M56.5556 40.384C56.4549 38.4097 55.7503 36.5342 55.7503 34.5599C55.7503 32.2895 55.9516 30.0191 55.5489 27.7487C55.4483 27.0577 51.4217 27.8474 51.5224 28.8345C51.8244 30.9075 51.7237 33.0792 51.7237 35.1522C51.7237 37.2252 52.227 39.002 52.4283 41.075C52.7303 43.148 52.3277 45.2209 52.529 47.2939C52.6297 48.281 53.3343 50.0579 52.6297 50.8476C52.227 51.3412 54.1396 51.1437 54.2403 51.1437C55.0456 51.045 56.0522 50.7489 56.5556 50.1566C57.2602 49.3669 56.7569 47.7875 56.6562 46.8003C56.4549 44.5299 56.6562 42.457 56.5556 40.384Z" fill="white"/>
<path d="M73.1649 37.0275C71.051 34.2636 67.2258 36.2378 64.5078 35.4481C63.0985 35.0533 63.0985 33.1777 63.0985 32.0919C63.0985 30.7099 62.9979 29.3279 62.7965 27.9459C62.6959 26.8601 62.7965 25.8729 63.6019 25.0832C63.7025 24.9845 64.5078 24.7871 64.4072 24.7871C64.8098 24.6884 65.1118 24.6884 65.5145 24.6884C67.1251 24.5897 70.2457 24.8858 69.6417 27.1562C69.3397 28.1433 73.2656 27.5511 73.5676 26.5639C74.7756 22.0231 66.1185 22.9115 63.7025 23.5038C61.4879 24.0961 58.9713 25.3794 58.8706 27.8472C58.77 29.0318 59.1726 30.2163 59.1726 31.4009C59.2733 32.7829 58.9713 34.1649 59.4746 35.5468C60.5819 38.5082 65.1118 37.1263 67.3264 37.3237C71.2523 37.6198 70.0444 42.7529 70.145 45.2207C70.145 46.504 71.353 48.6757 70.3464 49.6628C69.7424 50.3538 68.3331 50.3538 67.5278 50.4525C66.7224 50.5512 65.3131 50.7487 64.7092 49.959C63.7025 48.577 64.8098 46.2079 64.6085 44.5297C64.4072 43.5426 60.3806 44.431 60.5819 45.5169C60.8839 48.1821 59.1726 51.6371 62.9979 52.1307C65.5145 52.4268 68.2324 51.9332 70.6483 51.2422C71.8563 50.8474 72.9636 50.2551 73.9703 49.4654C74.9769 48.577 74.6749 47.0963 74.3729 45.9117C73.6683 42.9503 75.0776 39.5941 73.1649 37.0275Z" fill="white"/>
<path d="M90.7812 36.83C90.6805 33.0789 90.0765 29.3278 90.0765 25.5767C90.0765 23.6024 86.05 24.2934 86.05 25.8729C86.05 29.4265 86.5533 32.9802 86.7546 36.6326C86.7546 36.7313 86.7546 36.7313 86.7546 36.83C84.7413 36.83 82.8287 37.0274 80.8154 37.0274C81.0168 32.3879 80.2114 27.8471 80.4128 23.2076C80.4128 22.6153 76.4869 23.1089 76.3862 24.2934C76.1849 28.7355 76.9902 33.1776 76.8895 37.6197C76.7889 39.7914 76.6882 41.8644 76.5875 44.0361C76.5875 45.1219 76.7889 46.2078 76.8895 47.2936C76.9902 48.2808 77.3928 49.6627 77.0909 50.5512C76.8895 51.3409 80.7148 50.8473 81.0168 49.8602C81.5201 48.0833 80.8154 45.8129 80.6141 44.0361C80.4128 42.358 80.6141 40.5811 80.7148 38.8043C82.728 38.7056 84.842 38.5081 86.8553 38.8043C86.9559 40.1863 87.0566 41.5683 87.1573 42.9502C87.2579 44.1348 87.3586 45.2206 87.3586 46.4052C87.3586 47.3923 87.4593 48.873 87.1573 49.8602C86.352 51.9331 90.3785 51.7357 90.9825 50.255C91.6871 48.3795 91.4858 46.1091 91.3852 44.1348C91.1838 41.7657 90.7812 39.2979 90.7812 36.83Z" fill="white"/>
<path d="M107.894 41.3711C106.988 38.6071 105.478 36.238 104.27 33.5728C105.277 31.5985 106.283 29.7229 107.29 27.7487C108.095 25.9718 108.8 23.8989 110.411 22.7143C111.015 22.2207 111.015 21.8259 110.109 21.7272C109.203 21.6285 107.995 21.9246 107.29 22.4182C105.78 23.6027 104.874 24.9847 104.069 26.6628C103.062 28.7358 102.156 30.7101 101.049 32.6843C100.948 32.783 100.848 32.9805 100.848 33.0792C100.344 33.3753 100.042 33.8689 100.244 34.3625C99.4382 35.9419 98.6329 37.4226 97.727 39.002C97.425 33.474 96.7203 27.9461 96.519 22.4182C96.519 21.1349 92.4924 21.9246 92.4924 23.504C92.6938 30.3152 93.7004 37.1264 93.8011 44.0364C93.8011 44.0364 93.8011 44.0364 93.8011 44.1351C93.4991 44.4312 93.5997 44.6286 93.9017 44.7273C93.9017 46.5042 93.8011 48.1823 93.7004 49.9591C93.1971 50.7489 94.2037 51.045 94.8077 51.045H94.9084C95.613 51.045 97.5256 50.6501 97.6263 49.663C97.8276 47.59 97.9283 45.5171 97.8276 43.4441C99.4382 41.7659 100.747 39.7917 101.955 37.8174C102.76 39.2981 103.465 40.7788 103.968 42.3582C104.874 45.1222 106.283 47.59 107.189 50.354C107.693 52.1308 111.719 51.045 111.216 49.2682C110.31 46.6029 108.901 44.0364 107.894 41.3711Z" fill="white"/>
<path d="M131.852 36.7316C131.651 35.9419 130.443 35.8431 129.537 35.9419C129.537 35.6457 129.537 35.2509 129.537 34.9547C129.437 32.2895 129.336 29.6242 129.135 26.959C128.933 24.4911 127.524 23.6027 125.108 23.7014C122.692 23.8001 119.773 24.195 117.457 25.0834C114.84 26.0705 113.33 28.0448 112.827 30.7101C112.223 33.6715 113.028 36.929 113.23 39.8904C113.431 43.3453 113.33 46.899 113.33 50.354C113.33 50.9463 117.357 50.354 117.357 49.2681C117.357 46.5042 117.357 43.7402 117.357 40.9762C117.357 40.1865 117.256 39.3968 117.256 38.5084C118.665 37.9161 120.981 38.5084 122.39 38.6071C123.497 38.7058 124.605 38.4097 125.712 38.311C125.712 40.5814 125.813 42.9505 125.913 45.2209C125.913 46.4055 126.417 48.7746 125.511 49.7617C125.108 50.2553 127.021 50.0578 127.121 50.0578C127.927 49.9591 128.933 49.663 129.437 48.972C130.443 47.8862 129.94 45.2209 129.839 43.8389C129.738 41.9634 129.738 39.9891 129.738 38.1135C130.745 38.311 132.054 37.5213 131.852 36.7316ZM116.954 36.5341C116.853 35.2509 116.753 34.0663 116.652 32.783C116.451 30.4139 116.753 27.2551 118.967 25.7744C119.571 25.3795 120.679 25.4783 121.383 25.3795C122.39 25.1821 123.397 24.9847 124.303 25.577C125.511 26.3667 125.209 29.2294 125.209 30.4139C125.209 32.3882 125.41 34.3624 125.511 36.4354C124.907 36.5341 124.403 36.5341 123.799 36.5341C121.484 36.4354 119.169 36.1393 116.954 36.5341Z" fill="white"/>
<path d="M53.1328 24.9843C53.6361 24.8856 54.2401 24.7869 54.6427 24.4908C54.7434 24.3921 54.8441 24.3921 54.9447 24.2933C55.4481 23.9972 55.9514 23.5036 55.6494 22.9114C55.1461 21.8255 55.2467 20.641 55.2467 19.5551C55.2467 18.568 54.2401 18.2718 53.4348 18.3705C52.7301 18.4693 51.2202 18.9628 51.2202 19.8512C51.2202 20.8384 51.1195 21.8255 51.3208 22.8126C51.3208 22.9114 51.2202 23.0101 51.2202 23.2075C51.1195 23.4049 51.2202 23.6023 51.3208 23.7998V23.8985C51.3208 23.9972 51.3208 24.0959 51.3208 24.1946C51.4215 24.3921 51.5222 24.5895 51.7235 24.6882C52.1261 24.9843 52.6295 24.9843 53.1328 24.9843Z" fill="white"/>
</g>
<defs>
<filter id="filter0_d_1159_107" x="0" y="0" width="157" height="79.9997" filterUnits="userSpaceOnUse" color-interpolation-filters="sRGB">
<feFlood flood-opacity="0" result="BackgroundImageFix"/>
<feColorMatrix in="SourceAlpha" type="matrix" values="0 0 0 0 0 0 0 0 0 0 0 0 0 0 0 0 0 0 127 0" result="hardAlpha"/>
<feOffset dy="4"/>
<feGaussianBlur stdDeviation="2"/>
<feComposite in2="hardAlpha" operator="out"/>
<feColorMatrix type="matrix" values="0 0 0 0 0 0 0 0 0 0 0 0 0 0 0 0 0 0 0.25 0"/>
<feBlend mode="normal" in2="BackgroundImageFix" result="effect1_dropShadow_1159_107"/>
<feBlend mode="normal" in="SourceGraphic" in2="effect1_dropShadow_1159_107" result="shape"/>
</filter>
</defs>
</svg>
